<?xml version="1.0" encoding="UTF-8"?>
<svg xmlns="http://www.w3.org/2000/svg" xmlns:xlink="http://www.w3.org/1999/xlink" width="1195pt" height="260.11pt" viewBox="0 0 1195 260.11" version="1.1">
<defs>
<clipPath id="clip1">
  <path d="M 0 0 L 1195 0 L 1195 260.109375 L 0 260.109375 Z M 0 0 "/>
</clipPath>
</defs>
<g id="surface1">
<g clip-path="url(#clip1)" clip-rule="nonzero">
<path style=" stroke:none;fill-rule:nonzero;fill:rgb(92.89856%,11.799622%,13.699341%);fill-opacity:1;" d="M 884.226563 115.203125 C 880.570313 114.964844 878.898438 111.332031 881.367188 108.628906 C 899.761719 88.453125 960.746094 48.277344 978.898438 71.53125 C 998.386719 96.492188 899.328125 116.183594 884.226563 115.203125 M 678.40625 103.097656 C 672.03125 114.152344 646.164063 136.746094 603.121094 121.039063 C 599.914063 119.871094 599.808594 118.210938 602.292969 116.445313 C 611.777344 109.710938 645.664063 91.945313 672.648438 94.960938 C 677.789063 95.535156 680.972656 98.644531 678.40625 103.097656 M 1188.039063 97.621094 C 1165.378906 100.019531 1065.828125 115.378906 1035.960938 105.558594 C 1012.789063 97.941406 1039.898438 71.242188 1045.429688 67.3125 C 1045.921875 66.96875 1046.289063 66.492188 1046.488281 65.933594 C 1047.539063 63.101563 1049.53125 54.789063 1034.378906 59.84375 C 1023.230469 63.558594 1018.109375 67.515625 1015.820313 70.003906 C 1015.230469 70.640625 1014.179688 70.25 1014.160156 69.386719 C 1014.011719 63.386719 1011.949219 50.5 997.550781 45.636719 C 967.996094 35.660156 933.308594 41.839844 905.914063 55.132813 C 900.425781 57.796875 895.101563 60.796875 889.964844 64.082031 C 886.019531 66.601563 881.808594 71.5625 876.726563 69.179688 C 874.171875 67.984375 872.339844 65.675781 870.605469 63.449219 C 869.183594 61.625 867.757813 59.800781 866.335938 57.976563 C 865.570313 56.992188 864.675781 55.929688 863.4375 55.757813 C 862.566406 55.640625 861.707031 55.996094 860.898438 56.34375 C 852.324219 60.035156 843.847656 63.953125 835.261719 67.621094 C 828.515625 70.5 821.769531 73.378906 815.023438 76.257813 C 812.523438 77.328125 809.734375 75.636719 809.472656 72.929688 C 809.070313 68.777344 807.824219 63.558594 804.203125 61.746094 C 796.304688 57.800781 787.003906 65.414063 780.542969 69.09375 C 763.878906 78.582031 746.382813 86.667969 729.183594 95.125 C 725.171875 97.097656 720.820313 93.035156 722.566406 88.925781 C 725.464844 82.109375 726.503906 74.082031 720.070313 68.097656 C 706.417969 55.398438 687.371094 58.890625 680.066406 60.160156 C 672.949219 61.398438 621.476563 71.386719 599.777344 83.949219 C 599.128906 84.324219 598.335938 83.808594 598.410156 83.0625 C 598.894531 78.25 598.953125 66.234375 586.09375 73.179688 C 572.019531 80.777344 547.710938 93.371094 526.226563 108.296875 C 522.347656 110.996094 516.976563 109.054688 515.746094 104.488281 C 512.25 91.46875 505.351563 69.4375 497.835938 65.5 C 487.039063 59.84375 480.800781 59.867188 476.355469 69.710938 C 472.015625 79.3125 450.867188 112.730469 413.941406 113.796875 C 412.394531 113.84375 411.0625 112.71875 410.867188 111.183594 C 409.882813 103.476563 403.574219 80.660156 391.972656 70.011719 C 387.269531 65.699219 382.222656 66.910156 378.894531 72.355469 C 378.855469 72.414063 378.816406 72.480469 378.777344 72.542969 C 375.125 78.636719 359.191406 98.757813 352.578125 103.742188 C 352.164063 104.054688 351.582031 103.953125 351.289063 103.527344 C 349.074219 100.285156 339.460938 87.476563 320.996094 79.210938 C 299.726563 69.683594 263.851563 46.828125 184.800781 27.777344 C 184.800781 27.777344 179.28125 26.972656 180.867188 21.894531 C 182.453125 16.8125 218.351563 24.820313 229.863281 26.128906 C 250.242188 28.441406 295.660156 41.941406 308.457031 48.441406 C 319.269531 53.933594 339.886719 50.382813 325.546875 39.03125 C 313.183594 29.238281 297.980469 20.296875 294.167969 19.027344 C 290.359375 17.757813 283.128906 20.472656 270.429688 17.617188 C 257.746094 14.765625 222.871094 0.355469 138.972656 -0.00390625 C 138.738281 -0.00390625 122.769531 -0.222656 120.074219 7.980469 C 117.121094 16.980469 117.492188 25.871094 158.765625 42.699219 C 200.039063 59.527344 221.328125 67.054688 230.164063 73.613281 C 239.539063 80.566406 256.78125 97.503906 221.625 99.210938 L 8.117188 99.210938 C 8 99.210938 7.890625 99.21875 7.777344 99.230469 C 6.636719 99.359375 0.601563 100.207031 0.0234375 103.65625 C -0.609375 107.464844 10.820313 116.355469 20.34375 117.308594 C 29.8125 118.253906 83.210938 126.105469 98.496094 148.96875 C 98.664063 149.222656 98.945313 149.371094 99.246094 149.371094 L 265.402344 149.371094 C 265.425781 149.375 265.453125 149.375 265.476563 149.375 C 267.167969 149.515625 325.515625 154.152344 358.0625 125.226563 C 360.164063 123.363281 363.476563 124.132813 364.441406 126.769531 C 368.257813 137.179688 378.503906 157.292969 400.050781 154.453125 C 428.722656 150.671875 448.328125 149.078125 467.242188 140.988281 C 467.511719 140.871094 467.816406 140.890625 468.0625 141.046875 C 470.59375 142.621094 484.703125 151.277344 489.898438 151.277344 C 494.886719 151.277344 501.324219 151.519531 525.25 129.632813 C 528.546875 126.617188 533.804688 129.558594 532.941406 133.9375 C 527.726563 160.433594 525.167969 218.707031 569.949219 259.871094 C 570.414063 260.296875 571.175781 260.128906 571.402344 259.542969 C 572.878906 255.730469 576.621094 241.527344 572.453125 201.660156 C 569.734375 175.667969 571.101563 158.460938 574.144531 150.648438 C 576.042969 145.777344 581.824219 143.765625 586.316406 146.433594 C 595.960938 152.164063 615.371094 161.296875 638.914063 159.53125 C 664.375 157.621094 698.707031 134.339844 714.160156 122.914063 C 717.527344 120.421875 722.292969 122.824219 722.292969 127.011719 L 719.402344 150.785156 C 719.402344 158.160156 726.964844 163.113281 733.722656 160.167969 L 769.015625 141.921875 C 772.125 140.5625 774.535156 137.976563 775.628906 134.769531 C 779.375 123.808594 789.226563 97.503906 824.210938 99.550781 C 827.695313 99.753906 829.554688 103.769531 827.421875 106.539063 C 816.046875 121.328125 794.019531 157.75 857.222656 153.183594 C 934.421875 147.601563 957.121094 129.304688 982.390625 114.847656 C 983.070313 114.460938 983.886719 115.058594 983.738281 115.828125 C 982.296875 123.265625 980.273438 148.785156 1020.410156 149.054688 L 1101.921875 150.765625 C 1102.808594 150.765625 1103.648438 150.375 1104.21875 149.691406 C 1112.648438 139.554688 1122.960938 129.515625 1135.910156 125.835938 C 1149.980469 121.839844 1164.929688 121.910156 1178.789063 117.023438 C 1184.441406 115.027344 1190.398438 111.789063 1193.5 106.433594 C 1196.761719 100.8125 1194.589844 96.929688 1188.039063 97.621094 "/>
</g>
</g>
</svg>
